# xmcd CD database file
#
# Track frame offsets:
#	150
#	48645
#	111350
#	165967
#	233651
#	296775
#
# Disc length: 4408 seconds
#
# Revision: 6
# Processed by: cddbd v1.5.2PL0 Copyright (c) Steve Scherf et al.
# Submitted via: CDex 1.70beta2
#
DISCID=4e113606
DTITLE=Ken Follett - Die Kinder von Eden
DYEAR=2000
DGENRE=Hörbuch
TTITLE0=Kinder von Eden 1-01
TTITLE1=Kinder von Eden 1-02
TTITLE2=Kinder von Eden 1-03
TTITLE3=Kinder von Eden 1-04
TTITLE4=Kinder von Eden 1-05
TTITLE5=Kinder von Eden 1-06
EXTD=YEAR: 2000
EXTT0=
EXTT1=
EXTT2=
EXTT3=
EXTT4=
EXTT5=
PLAYORDER=
